{
  "accessors": [
    {
      "bufferView": 2,
      "componentType": 5126,
      "count": 13994,
      "max": [
        17.956422805786133,
        12.446027755737305,
        16.22191619873047
      ],
      "min": [
        -17.904117584228516,
        0.01566934585571289,
        -23.518390655517578
      ],
      "type": "VEC3"
    },
    {
      "bufferView": 2,
      "byteOffset": 167928,
      "componentType": 5126,
      "count": 13994,
      "max": [
        1.0,
        1.0,
        1.0
      ],
      "min": [
        -1.0,
        -1.0,
        -1.0
      ],
      "type": "VEC3"
    },
    {
      "bufferView": 1,
      "componentType": 5126,
      "count": 13994,
      "max": [
        0.5323450565338135,
        0.672713041305542
      ],
      "min": [
        0.23359043896198273,
        0.4506946802139282
      ],
      "type": "VEC2"
    },
    {
      "bufferView": 0,
      "componentType": 5125,
      "count": 49968,
      "type": "SCALAR"
    },
    {
      "bufferView": 2,
      "byteOffset": 335856,
      "componentType": 5126,
      "count": 762,
      "max": [
        0.6063694953918457,
        3.1470143795013428,
        12.703883171081543
      ],
      "min": [
        -0.5644477605819702,
        2.1016485691070557,
        -6.105745792388916
      ],
      "type": "VEC3"
    },
    {
      "bufferView": 2,
      "byteOffset": 345000,
      "componentType": 5126,
      "count": 762,
      "max": [
        1.0,
        1.0,
        1.0
      ],
      "min": [
        -1.0,
        -1.0,
        -1.0
      ],
      "type": "VEC3"
    },
    {
      "bufferView": 1,
      "byteOffset": 111952,
      "componentType": 5126,
      "count": 762,
      "max": [
        0.3908751904964447,
        0.6398159265518188
      ],
      "min": [
        0.3597153425216675,
        0.5464810729026794
      ],
      "type": "VEC2"
    },
    {
      "bufferView": 0,
      "byteOffset": 199872,
      "componentType": 5125,
      "count": 2772,
      "type": "SCALAR"
    }
  ],
  "asset": {
    "extras": {
      "author": "businessyuen (https://sketchfab.com/businessyuen)",
      "license": "CC-BY-4.0 (http://creativecommons.org/licenses/by/4.0/)",
      "source": "https://sketchfab.com/3d-models/1400-boeing-737-airplane-for-free-f39ca33a81f14613a3d562d6b74c466a",
      "title": "1/400 Boeing 737 Airplane For Free"
    },
    "generator": "Sketchfab-16.14.0",
    "version": "2.0"
  },
  "bufferViews": [
    {
      "buffer": 0,
      "byteLength": 210960,
      "name": "floatBufferViews",
      "target": 34963
    },
    {
      "buffer": 0,
      "byteLength": 118048,
      "byteOffset": 210960,
      "byteStride": 8,
      "name": "floatBufferViews",
      "target": 34962
    },
    {
      "buffer": 0,
      "byteLength": 354144,
      "byteOffset": 329008,
      "byteStride": 12,
      "name": "floatBufferViews",
      "target": 34962
    }
  ],
  "buffers": [
    {
      "byteLength": 683152,
      "uri": "scene.bin"
    }
  ],
  "extensionsUsed": [
    "KHR_materials_clearcoat",
    "KHR_materials_specular"
  ],
  "images": [
    {
      "uri": "textures/Material_metal_baseColor.jpeg"
    },
    {
      "uri": "textures/Material_metal_specularf0.png"
    }
  ],
  "materials": [
    {
      "doubleSided": true,
      "extensions": {
        "KHR_materials_clearcoat": {
          "clearcoatFactor": 1.0,
          "clearcoatRoughnessFactor": 0.04
        },
        "KHR_materials_specular": {
          "specularColorFactor": [
            1.0,
            1.0,
            1.0
          ],
          "specularFactor": 1.0,
          "specularTexture": {
            "index": 1
          }
        }
      },
      "name": "Material_metal",
      "pbrMetallicRoughness": {
        "baseColorTexture": {
          "index": 0
        },
        "metallicFactor": 0.3097617720471679,
        "roughnessFactor": 0.5
      }
    },
    {
      "doubleSided": true,
      "name": "Material_metal.001",
      "pbrMetallicRoughness": {
        "baseColorTexture": {
          "index": 0
        },
        "metallicFactor": 0.0,
        "roughnessFactor": 0.5
      }
    }
  ],
  "meshes": [
    {
      "name": "Object_0",
      "primitives": [
        {
          "attributes": {
            "NORMAL": 1,
            "POSITION": 0,
            "TEXCOORD_0": 2
          },
          "indices": 3,
          "material": 0,
          "mode": 4
        }
      ]
    },
    {
      "name": "Object_1",
      "primitives": [
        {
          "attributes": {
            "NORMAL": 5,
            "POSITION": 4,
            "TEXCOORD_0": 6
          },
          "indices": 7,
          "material": 1,
          "mode": 4
        }
      ]
    }
  ],
  "nodes": [
    {
      "children": [
        1
      ],
      "matrix": [
        1.0,
        0.0,
        0.0,
        0.0,
        0.0,
        2.220446049250313e-16,
        -1.0,
        0.0,
        0.0,
        1.0,
        2.220446049250313e-16,
        0.0,
        0.0,
        0.0,
        0.0,
        1.0
      ],
      "name": "Sketchfab_model"
    },
    {
      "children": [
        2
      ],
      "name": "root"
    },
    {
      "children": [
        3
      ],
      "matrix": [
        1.0,
        0.0,
        0.0,
        0.0,
        0.0,
        2.220446049250313e-16,
        1.0,
        0.0,
        0.0,
        -1.0,
        2.220446049250313e-16,
        0.0,
        0.0,
        0.0,
        0.0,
        1.0
      ],
      "name": "GLTF_SceneRootNode"
    },
    {
      "children": [
        4,
        5
      ],
      "name": "A_AirPlane1_0"
    },
    {
      "mesh": 0,
      "name": "Object_4"
    },
    {
      "mesh": 1,
      "name": "Object_5"
    }
  ],
  "samplers": [
    {
      "magFilter": 9729,
      "minFilter": 9987,
      "wrapS": 10497,
      "wrapT": 10497
    }
  ],
  "scene": 0,
  "scenes": [
    {
      "name": "Sketchfab_Scene",
      "nodes": [
        0
      ]
    }
  ],
  "textures": [
    {
      "sampler": 0,
      "source": 0
    },
    {
      "sampler": 0,
      "source": 1
    }
  ]
}
