{
  "accessors": [
    {
      "bufferView": 2,
      "componentType": 5126,
      "count": 23480,
      "max": [
        30.09248924255371,
        22.35540199279785,
        19.279672622680664
      ],
      "min": [
        -30.09248924255371,
        -38.59199142456055,
        -0.0004493929445743561
      ],
      "type": "VEC3"
    },
    {
      "bufferView": 2,
      "byteOffset": 281760,
      "componentType": 5126,
      "count": 23480,
      "max": [
        1.0,
        1.0,
        1.0
      ],
      "min": [
        -1.0,
        -1.0,
        -1.0
      ],
      "type": "VEC3"
    },
    {
      "bufferView": 3,
      "componentType": 5126,
      "count": 23480,
      "max": [
        1.0,
        0.999928891658783,
        1.0,
        1.0
      ],
      "min": [
        -1.0,
        -1.0,
        -1.0,
        1.0
      ],
      "type": "VEC4"
    },
    {
      "bufferView": 1,
      "componentType": 5126,
      "count": 23480,
      "max": [
        0.99951171875,
        0.9956821203231812
      ],
      "min": [
        0.00048828125,
        0.00048828125
      ],
      "type": "VEC2"
    },
    {
      "bufferView": 0,
      "componentType": 5125,
      "count": 114474,
      "type": "SCALAR"
    },
    {
      "bufferView": 2,
      "byteOffset": 563520,
      "componentType": 5126,
      "count": 595,
      "max": [
        3.122661590576172,
        0.0,
        4.01405143737793
      ],
      "min": [
        -3.122661590576172,
        -16.21131134033203,
        0.0
      ],
      "type": "VEC3"
    },
    {
      "bufferView": 2,
      "byteOffset": 570660,
      "componentType": 5126,
      "count": 595,
      "max": [
        0.8895726799964905,
        1.0,
        0.9999973773956299
      ],
      "min": [
        -0.8895726799964905,
        -0.3191157877445221,
        -0.973331093788147
      ],
      "type": "VEC3"
    },
    {
      "bufferView": 3,
      "byteOffset": 375680,
      "componentType": 5126,
      "count": 595,
      "max": [
        0.21680767834186554,
        0.9999829530715942,
        0.3191017806529999,
        1.0
      ],
      "min": [
        -0.2073717713356018,
        -0.9839455485343933,
        -0.9999837279319763,
        1.0
      ],
      "type": "VEC4"
    },
    {
      "bufferView": 1,
      "byteOffset": 187840,
      "componentType": 5126,
      "count": 595,
      "max": [
        0.8943978548049927,
        0.923359215259552
      ],
      "min": [
        0.36949941515922546,
        0.6710917353630066
      ],
      "type": "VEC2"
    },
    {
      "bufferView": 0,
      "byteOffset": 457896,
      "componentType": 5125,
      "count": 2826,
      "type": "SCALAR"
    }
  ],
  "asset": {
    "extras": {
      "author": "HaVe (https://sketchfab.com/HaVe)",
      "license": "CC-BY-4.0 (http://creativecommons.org/licenses/by/4.0/)",
      "source": "https://sketchfab.com/3d-models/c17-plane-game-ready-549bce95137c4304b771a2b046420c6f",
      "title": "C17 Plane Game-Ready"
    },
    "generator": "Sketchfab-15.53.0",
    "version": "2.0"
  },
  "bufferViews": [
    {
      "buffer": 0,
      "byteLength": 469200,
      "name": "floatBufferViews",
      "target": 34963
    },
    {
      "buffer": 0,
      "byteLength": 192600,
      "byteOffset": 469200,
      "byteStride": 8,
      "name": "floatBufferViews",
      "target": 34962
    },
    {
      "buffer": 0,
      "byteLength": 577800,
      "byteOffset": 661800,
      "byteStride": 12,
      "name": "floatBufferViews",
      "target": 34962
    },
    {
      "buffer": 0,
      "byteLength": 385200,
      "byteOffset": 1239600,
      "byteStride": 16,
      "name": "floatBufferViews",
      "target": 34962
    }
  ],
  "buffers": [
    {
      "byteLength": 1624800,
      "uri": "scene.bin"
    }
  ],
  "images": [
    {
      "uri": "textures/C17Plane_baseColor.jpeg"
    },
    {
      "uri": "textures/C17Plane_metallicRoughness.png"
    },
    {
      "uri": "textures/C17Plane_normal.png"
    }
  ],
  "materials": [
    {
      "doubleSided": true,
      "name": "C17Plane",
      "normalTexture": {
        "index": 2
      },
      "pbrMetallicRoughness": {
        "baseColorTexture": {
          "index": 0
        },
        "metallicRoughnessTexture": {
          "index": 1
        }
      }
    }
  ],
  "meshes": [
    {
      "name": "PlaneC17_C17Plane_0",
      "primitives": [
        {
          "attributes": {
            "NORMAL": 1,
            "POSITION": 0,
            "TANGENT": 2,
            "TEXCOORD_0": 3
          },
          "indices": 4,
          "material": 0,
          "mode": 4
        }
      ]
    },
    {
      "name": "DropDoor_C17Plane_0",
      "primitives": [
        {
          "attributes": {
            "NORMAL": 6,
            "POSITION": 5,
            "TANGENT": 7,
            "TEXCOORD_0": 8
          },
          "indices": 9,
          "material": 0,
          "mode": 4
        }
      ]
    }
  ],
  "nodes": [
    {
      "children": [
        1
      ],
      "matrix": [
        -1.0,
        -2.832769343193999e-16,
        -4.504636734104249e-32,
        0.0,
        2.770065955897755e-32,
        6.123234262925839e-17,
        -1.0,
        0.0,
        2.832769343193999e-16,
        -1.0,
        -6.123234262925839e-17,
        0.0,
        0.0,
        0.0,
        0.0,
        1.0
      ],
      "name": "Sketchfab_model"
    },
    {
      "children": [
        2
      ],
      "matrix": [
        0.009999999776482582,
        0.0,
        0.0,
        0.0,
        0.0,
        -0.009999999776482582,
        0.0,
        0.0,
        0.0,
        0.0,
        -0.009999999776482582,
        0.0,
        0.0,
        0.0,
        0.0,
        1.0
      ],
      "name": "CargoPlane.fbx"
    },
    {
      "children": [
        3
      ],
      "name": "RootNode"
    },
    {
      "children": [
        4,
        5
      ],
      "matrix": [
        100.0,
        0.0,
        0.0,
        0.0,
        0.0,
        100.0,
        0.0,
        0.0,
        0.0,
        0.0,
        100.0,
        0.0,
        0.0,
        0.0,
        0.0,
        1.0
      ],
      "name": "PlaneC17"
    },
    {
      "mesh": 0,
      "name": "PlaneC17_C17Plane_0"
    },
    {
      "children": [
        6
      ],
      "matrix": [
        1.0,
        0.0,
        0.0,
        0.0,
        0.0,
        1.0,
        0.0,
        0.0,
        0.0,
        0.0,
        1.0,
        0.0,
        -1.171174456718392e-15,
        -10.902759552001953,
        0.1478864848613739,
        1.0
      ],
      "name": "DropDoor"
    },
    {
      "mesh": 1,
      "name": "DropDoor_C17Plane_0"
    }
  ],
  "samplers": [
    {
      "magFilter": 9729,
      "minFilter": 9987,
      "wrapS": 10497,
      "wrapT": 10497
    }
  ],
  "scene": 0,
  "scenes": [
    {
      "name": "Sketchfab_Scene",
      "nodes": [
        0
      ]
    }
  ],
  "textures": [
    {
      "sampler": 0,
      "source": 0
    },
    {
      "sampler": 0,
      "source": 1
    },
    {
      "sampler": 0,
      "source": 2
    }
  ]
}
